<?xml version="1.0" encoding="UTF-8" standalone="no"?>
<svg xmlns="http://www.w3.org/2000/svg" width="133" height="512" viewBox="0 0 133 512">
  <!-- Seamless dojo tile: top = shoji wall, bottom = tatami floor -->
  <defs>
    <!-- Colors -->
    <style>
      .wood { fill: #7a5a37; }
      .wood-dark { fill: #6b4f2a; }
      .shoji-paper { fill: #f4f4f1; }
      .paper-shadow { fill: #ecebe6; }
      .tatami { fill: #d8d2a5; }
      .rib { stroke: #c9c294; stroke-width: 2; opacity: 0.6; }
      .grid { stroke: #6b4f2a; stroke-width: 6; stroke-linecap: square; }
    </style>
  </defs>

  <!-- Background -->
  <rect x="0" y="0" width="133" height="512" fill="#e3d3aa"/>

  <!-- Shoji area -->
  <g id="shoji" transform="translate(0,0)">
    <!-- Outer shoji frame (kept inside edges to avoid seam lines) -->
    <rect x="0" y="10" width="133" height="300" class="wood"/>
    <rect x="0" y="18" width="133" height="284" class="shoji-paper"/>
    <!-- subtle paper variation -->
    <rect x="0" y="18" width="133" height="284" class="paper-shadow" opacity="0.25"/>
    <!-- Inner grid (does not touch outer border to keep seamless) -->
    <!-- vertical bars -->
    <g class="grid">
      <line x1="0" y1="112" x2="130" y2="112"/>
      <line x1="0" y1="206" x2="130" y2="206"/>

      <line x1="130" y1="18" x2="130" y2="302"/>
    </g>
  </g>

  <!-- Wood rail separating wall and floor -->
  <rect x="0" y="310" width="133" height="12" class="wood-dark"/>

  <!-- Tatami area -->
  <g id="tatami" transform="translate(0,322)">
    <rect x="0" y="0" width="133" height="190" class="tatami"/>
    <!-- tatami ribs (subtle horizontal lines) -->
    <!-- start slightly inside edges to avoid seam artifacts -->
    <line x1="0" y1="6" x2="133" y2="6" class="rib"/>
    <line x1="0" y1="16" x2="133" y2="16" class="rib"/>
    <line x1="0" y1="26" x2="133" y2="26" class="rib"/>
    <line x1="0" y1="36" x2="133" y2="36" class="rib"/>
    <line x1="0" y1="46" x2="133" y2="46" class="rib"/>
    <line x1="0" y1="56" x2="133" y2="56" class="rib"/>
    <line x1="0" y1="66" x2="133" y2="66" class="rib"/>
    <line x1="0" y1="76" x2="133" y2="76" class="rib"/>
    <line x1="0" y1="86" x2="133" y2="86" class="rib"/>
    <line x1="0" y1="96" x2="133" y2="96" class="rib"/>
    <line x1="0" y1="106" x2="133" y2="106" class="rib"/>
    <line x1="0" y1="116" x2="133" y2="116" class="rib"/>
    <line x1="0" y1="126" x2="133" y2="126" class="rib"/>
    <line x1="0" y1="136" x2="133" y2="136" class="rib"/>
    <line x1="0" y1="146" x2="133" y2="146" class="rib"/>
    <line x1="0" y1="156" x2="133" y2="156" class="rib"/>
    <line x1="0" y1="166" x2="133" y2="166" class="rib"/>
    <line x1="0" y1="176" x2="133" y2="176" class="rib"/>
    <line x1="0" y1="186" x2="133" y2="186" class="rib"/>
  </g>
</svg>
